<?xml version="1.0" encoding="utf-8"?>
<svg viewBox="343.878 111.75 57.519 60.395" xmlns="http://www.w3.org/2000/svg">
  <g id="Text-files" transform="matrix(1, 0, 0, 1, 340.432205, 112.897405)">
    <path d="M 53.979 9.143 L 50.011 9.143 C 49.928 9.143 49.855 9.171 49.778 9.19 L 49.778 5.023 C 49.778 2.253 47.473 0 44.64 0 L 10.217 0 C 7.384 0 5.079 2.253 5.079 5.023 L 5.152 40.505 C 5.152 43.275 5.613 47.439 9.851 48.02 C 9.863 48.075 16.432 47.989 16.382 48.039 L 16.382 52.487 C 16.382 55.157 18.598 58.1 21.323 58.1 L 54.743 58.075 C 57.468 58.075 58.989 55.374 58.909 52.07 L 58.921 13.986 C 58.921 11.316 56.704 9.143 53.979 9.143 Z M 7.331 40.579 L 7.111 5.023 C 7.111 3.374 8.505 2.032 10.217 2.032 L 44.64 2.032 C 46.352 2.032 47.746 3.374 47.746 5.023 L 47.746 39.992 C 47.746 41.641 47.526 45.353 44.531 45.738 L 10.211 45.872 C 7.15 45.317 7.331 42.228 7.331 40.579 Z M 57.067 52.125 C 57.067 53.675 56.255 56.012 54.651 56.012 L 21.452 56.068 C 19.848 56.068 18.414 54.037 18.414 52.487 L 18.415 47.911 L 44.512 47.782 C 48.115 47.397 49.778 44.118 49.65 39.937 L 49.778 11.128 C 49.855 11.146 49.928 11.175 50.011 11.175 L 53.979 11.175 C 55.583 11.175 56.889 12.436 56.889 13.986 L 57.067 52.125 Z" style="fill: rgb(204, 204, 204);"/>
    <path d="M 38.603 8.974 L 16.254 8.974 C 15.692 8.974 15.238 9.428 15.238 9.989 C 15.238 10.551 15.692 11.005 16.254 11.005 L 38.603 11.005 C 39.165 11.005 39.619 10.551 39.619 9.989 C 39.619 9.428 39.165 8.974 38.603 8.974 Z" style="fill: rgb(204, 204, 204);"/>
    <path d="M 38.475 17.229 L 16.126 17.229 C 15.564 17.229 15.11 17.683 15.11 18.245 C 15.11 18.806 15.564 19.261 16.126 19.261 L 38.475 19.261 C 39.036 19.261 39.491 18.806 39.491 18.245 C 39.491 17.683 39.036 17.229 38.475 17.229 Z" style="fill: rgb(204, 204, 204);"/>
    <path d="M 38.603 25.228 L 16.254 25.228 C 15.692 25.228 15.238 25.682 15.238 26.243 C 15.238 26.805 15.692 27.259 16.254 27.259 L 38.603 27.259 C 39.165 27.259 39.619 26.805 39.619 26.243 C 39.619 25.682 39.165 25.228 38.603 25.228 Z" style="fill: rgb(204, 204, 204);"/>
    <path d="M 28.444 33.226 L 16.254 33.226 C 15.692 33.226 15.238 33.681 15.238 34.242 C 15.238 34.804 15.692 35.258 16.254 35.258 L 28.444 35.258 C 29.006 35.258 29.46 34.804 29.46 34.242 C 29.46 33.681 29.006 33.226 28.444 33.226 Z" style="fill: rgb(204, 204, 204);"/>
  </g>
</svg>