<?xml version="1.0" encoding="utf-8"?>
<svg viewBox="135.225 293.069 16 15.6053" xmlns="http://www.w3.org/2000/svg">
  <path d="M 143.225 293.069 C 138.805 293.069 135.225 296.649 135.225 301.069 C 135.225 304.609 137.515 307.599 140.695 308.659 C 141.095 308.729 141.245 308.489 141.245 308.279 C 141.245 308.089 141.235 307.459 141.235 306.789 C 139.225 307.159 138.705 306.299 138.545 305.849 C 138.455 305.619 138.065 304.909 137.725 304.719 C 137.445 304.569 137.045 304.199 137.715 304.189 C 138.345 304.179 138.795 304.769 138.945 305.009 C 139.665 306.219 140.815 305.879 141.275 305.669 C 141.345 305.149 141.555 304.799 141.785 304.599 C 140.005 304.399 138.145 303.709 138.145 300.649 C 138.145 299.779 138.455 299.059 138.965 298.499 C 138.885 298.299 138.605 297.479 139.045 296.379 C 139.045 296.379 139.715 296.169 141.245 297.199 C 141.885 297.019 142.565 296.929 143.245 296.929 C 143.925 296.929 144.605 297.019 145.245 297.199 C 146.775 296.159 147.445 296.379 147.445 296.379 C 147.885 297.479 147.605 298.299 147.525 298.499 C 148.035 299.059 148.345 299.769 148.345 300.649 C 148.345 303.719 146.475 304.399 144.695 304.599 C 144.985 304.849 145.235 305.329 145.235 306.079 C 145.235 307.149 145.225 308.009 145.225 308.279 C 145.225 308.489 145.375 308.739 145.775 308.659 C 149.031 307.56 151.224 304.507 151.225 301.069 C 151.225 296.649 147.645 293.069 143.225 293.069 Z" style="fill: rgb(247, 247, 247);"/>
</svg>