<?xml version="1.0" encoding="utf-8"?>
<svg viewBox="188.57 240.334 19.039 18.806" xmlns="http://www.w3.org/2000/svg">
  <path d="M 21 10.12 L 14.22 10.12 L 16.96 7.3 C 14.23 4.6 9.81 4.5 7.08 7.2 C 4.35 9.91 4.35 14.28 7.08 17 C 9.81 19.7 14.23 19.7 16.96 17 C 18.159 15.81 18.929 14.45 19.095 12.788 C 19.118 12.564 19.113 12.538 19.172 12.374 C 19.172 12.374 19.275 12.177 19.39 12.14 C 19.528 12.096 19.492 12.088 19.75 12.064 C 19.858 12.054 19.968 12.062 20.076 12.07 C 20.189 12.078 20.254 12.088 20.413 12.112 C 20.572 12.136 20.743 12.211 20.743 12.211 C 20.774 12.24 20.895 12.263 20.95 12.477 C 20.983 12.607 20.966 12.794 20.95 12.932 C 20.742 14.757 19.878 16.888 18.36 18.39 C 14.85 21.87 9.15 21.87 5.64 18.39 C 2.14 14.92 2.11 9.28 5.62 5.81 C 9.13 2.34 14.76 2.34 18.27 5.81 L 21 3 L 21 10.12 M 12.32 8.077 C 12.405 8.136 12.437 8.208 12.45 8.247 C 12.491 8.367 12.484 8.469 12.484 8.469 L 12.5 12.25 L 15.495 14.029 C 15.495 14.029 15.657 14.115 15.729 14.187 C 15.826 14.285 15.821 14.299 15.848 14.388 C 15.875 14.491 15.851 14.563 15.793 14.696 C 15.693 14.924 15.644 15.01 15.491 15.206 C 15.439 15.273 15.354 15.37 15.273 15.395 C 15.201 15.417 15.098 15.395 15.013 15.366 C 14.923 15.336 14.762 15.232 14.762 15.232 L 11 13 L 11.008 8.468 C 11.008 8.468 11.009 8.387 11.028 8.3 C 11.041 8.243 11.067 8.18 11.088 8.158 C 11.161 8.062 11.22 8.027 11.305 8 C 11.471 7.947 11.765 7.928 12.008 7.968 C 12.18 7.996 12.23 8.014 12.32 8.077 Z" transform="matrix(1, 0, 0, 1, 186.006875, 237.688686)" style="fill: rgb(247, 247, 247);"/>
</svg>