<?xml version="1.0" encoding="utf-8"?>
<svg viewBox="0 0 500 500" xmlns="http://www.w3.org/2000/svg">
    <path class="cls-1" d="M 1.59 2.851 C 9.604 -5.144 27.406 7.243 41.299 17.758 L 61.5 32.49 L 78.692 18.177 C 88.178 9.768 112.274 -4.299 120.29 3.69 C 128.285 11.704 112.118 34.334 104.963 43.818 L 90.41 61.44 L 104.723 77.012 C 112.712 85.028 130.348 113.323 122.359 121.339 C 114.343 129.328 86.258 112.322 78.242 104.333 L 61.44 90.41 L 41.508 106.823 C 31.602 114.182 6.037 129.928 -1.979 121.939 C -9.968 113.923 9.978 85.628 17.967 77.612 L 32.47 61.44 L 16.288 42.708 C 8.963 34.071 -6.365 10.858 1.59 2.851 Z" transform="matrix(1, 0, 0, 1, 147.748383, 208.151016)" style="fill: rgb(255, 65, 65); fill-rule: evenodd;"/>
</svg>