<?xml version="1.0" encoding="utf-8"?>
<svg viewBox="204.383 137.299 142.666 118.962" xmlns="http://www.w3.org/2000/svg">
  <path class="cls-1" d="M -1.438 43.858 C -17.924 30.364 3.787 30.352 23.39 41.998 C 29.951 45.896 42.32 55.9 48 61 C 47.692 62.33 57.594 48.202 69.004 34.094 C 80.719 19.61 93.959 5.121 94.453 5.3 C 110.156 -12.605 138.986 -18.493 124.453 -1.368 C 111.344 10.252 80.48 53.895 67.565 73.35 C 54.723 92.696 52.368 97.537 50.224 98.41 C 49.456 98.353 49.132 98.27 48.161 97.37 C 43.569 93.112 33.43 80.185 21.851 66.802 C 13.383 57.015 -1.438 43.858 -1.438 43.858 Z" transform="matrix(1, 0, 0, 1, 214.689493, 152.80825)" style="fill: rgb(16, 166, 74);"/>
</svg>