<?xml version="1.0" encoding="utf-8"?>
<svg viewBox="250.7025 246.7492 54.8488 58.987" xmlns="http://www.w3.org/2000/svg">
  <path d="M 54.342 9.17 C 54.342 9.17 50.13 9.198 50.051 9.216 L 50.051 5.057 C 50.051 2.292 49.169 -0.79 44.826 -0.945 L 8.52 -0.677 C 4.85 -0.418 4.631 2.292 4.631 5.057 L 4.545 40.637 C 4.487 45.158 5.287 47.868 9.85 47.922 C 9.863 47.977 15.988 47.948 15.937 47.999 L 15.937 52.439 C 15.937 55.809 18.201 58.042 20.984 58.042 L 55.123 58.018 C 57.907 58.018 59.46 55.321 59.379 52.023 L 59.391 14.005 C 59.391 11.339 57.126 9.17 54.342 9.17 Z M 7.57 40.712 L 7.425 5.137 C 7.425 3.49 7.528 2.225 9.639 2.07 L 44.803 2.07 C 46.551 2.07 47.223 3.302 47.223 4.949 L 47.124 40.839 C 47.021 43.004 47.347 44.778 44.184 44.903 L 9.916 44.855 C 7.199 44.651 7.57 43.06 7.57 40.712 Z M 56.871 52.028 C 56.871 53.576 56.591 55.279 54.98 55.275 L 20.905 55.217 C 19.202 55.281 18.795 53.839 18.795 52.292 L 18.698 47.92 L 44.31 47.794 C 49.49 47.565 49.948 45.067 49.92 40.894 L 50.051 11.688 C 50.13 11.707 54.342 11.687 54.342 11.687 C 55.981 11.687 56.778 12.457 56.778 14.005 L 56.871 52.028 Z" style="stroke-width: 6px; stroke-miterlimit: 4.01; transform-origin: 31.9666px 28.5485px;" transform="matrix(1, 0, 0, 1, 246.160308837891, 247.694183349609)"/>
  <path d="M 38.785 10.215 L 16.436 10.16 C 15.593 10.267 15.42 11.363 15.42 11.924 C 15.42 12.486 15.54 13.582 16.342 13.689 L 38.785 13.666 C 39.696 13.505 39.801 12.486 39.801 11.924 C 39.801 11.363 39.629 10.323 38.785 10.215 Z" transform="matrix(1, 0, 0, 1, 246.16030883789062, 247.69418334960938)"/>
  <path d="M 38.889 20.904 L 16.54 20.849 C 15.697 20.956 15.524 22.052 15.524 22.613 C 15.524 23.175 15.644 24.271 16.446 24.378 L 38.889 24.355 C 39.8 24.194 39.905 23.175 39.905 22.613 C 39.905 22.052 39.733 21.012 38.889 20.904 Z" transform="matrix(1, 0, 0, 1, 246.16030883789062, 247.69418334960938)"/>
  <path d="M 39.186 32.043 L 16.837 31.988 C 15.994 32.095 15.821 33.191 15.821 33.752 C 15.821 34.314 15.941 35.41 16.743 35.517 L 39.186 35.494 C 40.097 35.333 40.202 34.314 40.202 33.752 C 40.202 33.191 40.03 32.151 39.186 32.043 Z" transform="matrix(1, 0, 0, 1, 246.16030883789062, 247.69418334960938)"/>
</svg>