<?xml version="1.0" encoding="utf-8"?>
<svg viewBox="203.7113 175.9651 22.9317 19" xmlns="http://www.w3.org/2000/svg">
  <path d="M 12 3 C 10.73 3 9.6 3.8 9.18 5 C 9.18 5 5.06 5.088 3.379 5.442 C -0.515 6.262 -0.304 6.984 4.01 7 C 4.026 7 4.95 7 4.95 7 L 2 14 C 1.53 16 3 17 5.5 17 C 8 17 9.56 16 9 14 L 6.05 7 L 9.17 7 C 9.5 7.85 10.15 8.5 11 8.83 L 11 20 C 11 20 8.272 20.08 5.566 20.505 C 1.655 21.119 2 22 2 22 L 22 22 C 22 22 22.442 21.242 18.782 20.536 C 16.42 20.08 13 20 13 20 L 13 8.82 C 13.85 8.5 14.5 7.85 14.82 7 L 17.95 7 L 15 14 C 14.53 16 16 17 18.5 17 C 21 17 22.56 16 22 14 L 19.05 7 L 20.021 7 C 24.336 6.905 24.931 6.116 20.416 5.456 C 18.613 5.193 14.83 5 14.83 5 C 14.4 3.8 13.27 3 12 3 M 12 5 C 12.552 5 13 5.448 13 6 C 13 6.552 12.552 7 12 7 C 11.448 7 11 6.552 11 6 C 11 5.448 11.448 5 12 5 M 5.5 10.25 L 7 14 C 7.084 14.968 4.084 14.968 4 14 L 5.5 10.25 M 18.5 10.25 L 20 14 C 20.126 15.01 17.126 15.01 17 14 L 18.5 10.25 Z" transform="matrix(1, 0, 0, 1, 203.1029052734375, 172.96511840820312)" style="fill: rgb(247, 247, 247);"/>
</svg>